<svg version="1" xmlns="http://www.w3.org/2000/svg" width="1600" height="1600" viewBox="0 0 1200.000000 1200.000000"><path d="M577.5 310.7c-42.3 5.2-78.7 20.1-111.2 45.5-10.9 8.5-28.8 26.4-36.4 36.3-8.1 10.5-17.5 25.6-23.5 37.7l-5.9 11.8-169.8.2-169.8.3 18.6 23.2L98.1 489H387l-.6 4.2c-.3 2.4-.7 5.3-1 6.5l-.4 2.3-102.1.2-102.1.3 18.6 23.2 18.7 23.3h83.4c78.5 0 83.4.1 83.8 1.7.3 1 .8 3.9 1.2 6.5l.6 4.8-43.1.2-43.1.3 18.6 23.2 18.6 23.3h62.4l6.3 12.5c7.3 14.8 14.9 26.8 24.2 38.5 7.8 9.7 27.6 29.4 36.5 36.1 28.6 21.8 60.6 35.8 97 42.5 12.2 2.2 45.3 3 59.8 1.4 71.9-7.7 136.2-52.8 169-118.7l6.1-12.3h62.4l18.6-23.3 18.6-23.2-43.1-.3-43-.2.7-5.8c.3-3.1.8-6 1.1-6.5.2-.4 37.9-.7 83.8-.7h83.4l18.6-23.3 18.7-23.2-102.3-.5-102.4-.5-.7-4c-.4-2.2-.7-5-.7-6.3l-.1-2.2h288.8l18.6-23.3 18.6-23.2-169.9-.3-169.9-.2-5-10.3c-9.8-20.5-22.5-38.7-38.6-55.5-35-36.3-80.3-58.9-130.6-65.2-7.8-.9-40.6-1.2-47.5-.3zm34.1 47.3c30.8 2.4 56.9 11.4 82 28.1 12.3 8.3 30.7 25.4 39.4 36.9 34.3 45.1 44 104.2 25.9 157.2-3.9 11.6-13.1 29.9-20.1 40-26.4 38.2-66 63.5-111.8 71.4-15 2.6-40.5 2.4-56.1-.4-37.5-6.8-73.3-27.1-97.4-55.2-25.6-29.8-39.5-64.8-41.1-103-1.4-30.7 3.8-54.7 17.6-82.5 26.2-52.8 79.1-88.4 138-92.8 9.2-.7 11-.7 23.6.3z"/><path d="M590.3 480.4c-16.9 4.1-25.5 21.1-18.2 35.7 2.9 5.8 9.4 10.7 23.7 17.6 19.8 9.6 24.5 14.9 20.8 23.6-2.3 5.6-6.7 7.9-14.7 7.5-7.9-.4-13.3-3.5-18-10.2l-3.1-4.3-6.6 2.4c-3.7 1.3-7.1 2.8-7.5 3.2-.5.5 0 2.6 1.1 4.7 3.7 7.2 8.9 12.2 17 16.1 7.1 3.6 8.1 3.8 16.6 3.7 14.7-.1 25-5.4 30.1-15.4 3.4-6.7 4.1-13.5 2.1-20.4-2.8-9.7-11.3-16.9-29.5-25.1-12.1-5.4-14.7-7.2-16.6-11.1-1.5-3.3-1.5-3.7.2-7.2 2.2-4.5 5.3-6.2 11.5-6.2 7 0 10.9 2.1 15.1 7.9l1.4 2.1 6.9-2.4c3.8-1.2 7-2.9 7.2-3.7.5-2.7-5.7-10.9-10.5-13.9-9-5.8-18.2-7.2-29-4.6zM394 815.5c0 .2 1 2.5 2.2 5l2.2 4.5H410v49h-14v10h39v-10h-14v-59h-13.5c-7.4 0-13.5.2-13.5.5zM473.3 817.5l-5.3 2.4V835h-5c-2.7 0-5 .3-5.1.7 0 .5-.2 2.7-.2 5.1l-.2 4.2H468v15.5c0 16.4.6 19.4 4.7 22 3.3 2.2 11 2.9 16.1 1.6 3.6-1 4.2-1.5 4.2-3.9 0-1.5.3-3.7.6-5 .6-2.1.5-2.2-2-1.2-3.5 1.3-8.2 1.3-10.7 0-1.7-1-1.9-2.3-1.9-15v-14h16v-10h-15.9l-.3-10-.3-10-5.2 2.5zM904.2 816.6c-3.4 2.3-2.7 8.3 1.1 10.4 2.4 1.3 3 1.3 5.5 0 3.7-2.1 4.4-8.1 1-10.4-1.2-.9-2.9-1.6-3.8-1.6-.9 0-2.6.7-3.8 1.6zM285.8 817.4c-5.8 2.1-8.6 4.3-10.8 8.6-3.7 7.2-2.1 15.2 4.1 20.4 1.8 1.5 7.5 4.8 12.6 7.3 5.2 2.5 10.3 5.7 11.3 7.1 2.6 3.2 2.5 7.3 0 10.5-4.3 5.4-13.6 4-19.6-2.9l-3.1-3.7-4.3 1.5c-2.4.8-4.5 1.9-4.7 2.4-.6 1.7 5.1 9.3 8.9 11.9 11.4 7.8 28.6 4.4 34.4-6.7 1.8-3.5 1.8-13.1-.1-16.7-2-4-7.6-8.1-17.5-13.1-13.1-6.5-15.1-9.1-11-14.3 3.8-4.8 11.3-4.3 15.7 1 2.1 2.5 2.3 2.6 6.7 1.3 6-1.6 6-4 .3-9.4-6.4-6.2-14.8-8.1-22.9-5.2zM700 850.5V884h12v-13.3c.1-13.1.1-13.2 2.9-16.7 1.6-1.9 3.2-3.3 3.4-3 .3.3 4.4 7.8 9.2 16.7l8.7 16.3h6.4c3.6 0 6.3-.3 6.1-.8-.2-.4-5.5-10-11.7-21.5-7.8-14.3-11-21.1-10.3-22 .5-.6 4.8-6 9.6-12L745 817h-6.7l-6.8.1-9.5 12.2-9.5 12.2-.3-12.3-.3-12.2H700v33.5zM528.7 835.9c-8.4 2.8-8.8 3.3-7.1 8.5l1.5 4.3 4.1-2c2.3-1.2 6.7-2.3 9.8-2.5 4.8-.4 6-.1 8.2 1.9 1.5 1.3 3 3.9 3.3 5.8l.7 3.4-3.8-.9c-6.6-1.5-15.5-1-19.9 1.1-11 5.4-11.5 21.4-.9 26.9 5.1 2.7 15.8 2.9 19.7.3 3.2-2.1 4.7-2.2 4.7-.2 0 1.1 1.2 1.5 5.1 1.5h5.1l-.4-19.9c-.3-18.4-.5-20.2-2.4-22.8-5.1-6.8-16.6-9.1-27.7-5.4zm17.2 27.2c2.8 1 3.2 1.5 2.9 4.2-.7 7-14 10.6-19.3 5.2-1.4-1.3-2.5-2.9-2.5-3.5 0-2.1 2.1-5.1 4.3-6 3.1-1.3 10.9-1.2 14.6.1zM597.2 835.3c-1.9.7-4.5 2.3-5.8 3.6l-2.4 2.3v-3.1c0-3.1-.1-3.1-5-3.1h-5v49h10.9l.3-16.9c.3-16.2.4-17.1 2.6-19.4 4.7-5 14.4-3.9 17.1 1.9.7 1.5 1.1 8.6 1.1 18.4v16h11.2l-.4-19.3c-.3-17.7-.5-19.5-2.5-22.7-1.2-1.9-3.6-4.3-5.3-5.3-3.9-2.3-12.5-3-16.8-1.4zM774.7 835.9c-8.4 2.8-8.8 3.3-7.1 8.5l1.5 4.3 4.1-2c2.3-1.2 6.7-2.3 9.8-2.5 4.8-.4 6-.1 8.2 1.9 1.5 1.3 3 3.9 3.3 5.8l.7 3.4-3.8-.9c-6.6-1.5-15.5-1-19.9 1.1-11 5.4-11.5 21.4-.9 26.9 5.1 2.7 15.8 2.9 19.7.3 3.2-2.1 4.7-2.2 4.7-.2 0 1.1 1.2 1.5 5.1 1.5h5.1l-.4-19.9c-.3-18.4-.5-20.2-2.4-22.8-5.1-6.8-16.6-9.1-27.7-5.4zm17.2 27.2c2.8 1 3.2 1.5 2.9 4.2-.7 7-14 10.6-19.3 5.2-1.4-1.3-2.5-2.9-2.5-3.5 0-2.1 2.1-5.1 4.3-6 3.1-1.3 10.9-1.2 14.6.1zM333 851.7c0 9.3.5 18.5 1.1 20.6 3 11 15.3 15.8 26.2 10.3 4.4-2.2 4.7-2.2 4.7-.5 0 1.6.8 1.9 5.5 1.9h5.5v-49h-11v33l-2.9 3.2c-2.5 2.8-3.6 3.3-7.5 3.3-3.6 0-5.1-.6-7.3-2.8l-2.8-2.7-.3-17-.3-17H333v16.7zM827 840v5h12c6.6 0 12 .3 12 .6 0 .6-4.9 6.4-19.3 22.7-5.6 6.4-6.3 7.9-5.8 14 .1 1.6 1.6 1.7 19.8 1.5l19.7-.3.1-4.8.1-4.7h-12.8c-7 0-12.8-.3-12.8-.6s5.9-7.2 13-15.4c12.1-13.8 13-15.1 13-18.9V835h-39v5zM889 840v5h14v29h-14v10h38v-10h-14v-39h-24v5z"/></svg>