<svg width="24" height="24" xmlns="http://www.w3.org/2000/svg">

 <g>
  <title>background</title>
  <rect fill="none" id="canvas_background" height="402" width="582" y="-1" x="-1"/>
 </g>
 <g>
  <title>Layer 1</title>
  <path stroke="null" id="svg_1" d="m21.033148,3.257978l-1.943559,-2.051443c-0.612844,-0.648727 -1.429247,-1.005699 -2.296539,-1.005699s-1.683696,0.356972 -2.296539,1.005699l-1.717261,1.814606c-1.266832,1.338644 -1.266832,3.514798 0,4.853442l1.49313,1.577769l-4.517285,4.773352l-1.49313,-1.577769c-0.612844,-0.648727 -1.429247,-1.005699 -2.296539,-1.005699s-1.683696,0.356972 -2.296539,1.005699l-1.717261,1.814606c-1.266832,1.338644 -1.266832,3.514798 0,4.853442l1.942476,2.051443c0.503485,0.532025 1.944642,1.767696 4.456651,1.767696c2.992756,0 6.16525,-1.74939 9.431945,-5.200116c6.761852,-7.146298 5.224329,-12.587828 3.250453,-14.677027zm-6.722873,1.380977l1.717261,-1.814606c0.211139,-0.223107 0.488326,-0.335233 0.765513,-0.335233s0.554374,0.112126 0.765513,0.335233l1.172632,1.237959l-3.24937,3.43242l-1.171549,-1.237959c-0.42336,-0.447359 -0.42336,-1.170455 0,-1.617814zm-10.827625,13.059214c-0.42336,-0.447359 -0.42336,-1.170455 0,-1.617814l1.717261,-1.814606c0.211139,-0.223107 0.488326,-0.335233 0.765513,-0.335233s0.554374,0.112126 0.765513,0.335233l1.171549,1.237959l-3.247205,3.43242l-1.172632,-1.237959zm12.769019,-1.380977c-3.338157,3.526239 -6.010415,4.52965 -7.900918,4.52965c-1.460647,0 -2.454623,-0.598385 -2.925624,-1.09723c-0.004331,-0.004577 3.242874,-3.436996 3.242874,-3.436996l0.32158,0.33981c0.211139,0.223107 0.488326,0.335233 0.765513,0.335233s0.554374,-0.112126 0.765513,-0.335233l6.048312,-6.391166c0.42336,-0.447359 0.42336,-1.170455 0,-1.617814l-0.32158,-0.33981l3.24937,-3.43242c1.086011,1.148717 2.671175,5.193251 -3.245039,11.445976z"/>
 </g>
</svg>