<svg width="1024" height="1024" xmlns="http://www.w3.org/2000/svg">

 <g>
  <title>background</title>
  <rect fill="none" id="canvas_background" height="402" width="582" y="-1" x="-1"/>
 </g>
 <g>
  <title>Layer 1</title>
  <path stroke="null" id="svg_1" d="m368.942799,264.720882l-111.787688,0c-55.893844,0 -55.893844,79.513118 -55.893844,79.513118l223.575377,0c0,0 0,-79.513118 -55.893844,-79.513118zm0,159.026236l-111.787688,0c-55.893844,0 -55.893844,79.513118 -55.893844,79.513118l223.575377,0c0,0 0,-79.513118 -55.893844,-79.513118zm0,159.026236l-111.787688,0c-55.893844,0 -55.893844,79.513118 -55.893844,79.513118l223.575377,0c0,0 0,-79.513118 -55.893844,-79.513118zm391.256909,-318.052472l-111.787688,0c-55.893844,0 -55.893844,79.513118 -55.893844,79.513118l223.575377,0c0,0 0,-79.513118 -55.893844,-79.513118zm0,159.026236l-111.787688,0c-55.893844,0 -55.893844,79.513118 -55.893844,79.513118l223.575377,0c0,0 0,-79.513118 -55.893844,-79.513118zm0,159.026236l-111.787688,0c-55.893844,0 -55.893844,79.513118 -55.893844,79.513118l223.575377,0c0,0 0,-79.513118 -55.893844,-79.513118zm-139.734611,-516.835266c-55.893844,0 -111.787688,79.513118 -111.787688,79.513118s-55.893844,-79.513118 -111.787688,-79.513118c-139.734611,0 -307.416143,79.513118 -307.416143,79.513118l0,755.37462l391.256909,-39.756559c0,0 -1.11875,39.756559 27.401084,39.756559c28.49276,0 28.49276,-39.756559 28.49276,-39.756559l391.256909,39.756559l0,-755.37462c0,0 -167.681533,-79.513118 -307.416143,-79.513118zm-139.734611,755.37462c0,0 0.900415,-79.513118 -55.893844,-79.513118c-168.581948,0 -279.469221,79.513118 -279.469221,79.513118l0,-636.104943c0,0 111.787688,-39.756559 223.575377,-39.756559c55.893844,0 111.787688,79.513118 111.787688,79.513118l0,596.348384zm391.256909,-39.756559c0,0 -84.714108,-39.756559 -279.469221,-39.756559c-54.147162,0 -55.893844,79.513118 -55.893844,79.513118l0,-596.348384c0,0 55.893844,-79.513118 111.787688,-79.513118c111.787688,0 223.575377,79.513118 223.575377,79.513118l0,556.591825z"/>
 </g>
</svg>