<svg width="24" height="24" xmlns="http://www.w3.org/2000/svg">

 <g>
  <title>background</title>
  <rect fill="none" id="canvas_background" height="402" width="582" y="-1" x="-1"/>
 </g>
 <g>
  <title>Layer 1</title>
  <path fill="#f5f5f5" stroke="null" id="svg_1" d="m19.866653,4.206919c-2.160084,-2.121471 -4.799089,-3.197438 -7.842956,-3.197438c-3.072257,0 -5.718668,1.077186 -7.866408,3.198657c-2.151444,2.121471 -3.242595,4.736449 -3.242595,7.768166c0,3.003691 1.089917,5.608921 3.238892,7.742577c2.148975,2.139749 4.796621,3.224246 7.870111,3.224246c3.045101,0 5.684107,-1.084497 7.845425,-3.22059c2.166256,-2.136093 3.263578,-4.742542 3.263578,-7.746233c0,-3.031717 -1.098557,-5.646695 -3.266047,-7.769385zm-1.742879,13.792607c-1.403437,1.387912 -3.006837,2.178742 -4.865743,2.418794l0,-6.004945l2.468667,0l0,-2.437072l-2.468667,0l0,-1.70595c0,-0.403335 0.332036,-0.731122 0.741835,-0.731122l1.726833,0l0,-2.437072l-1.724364,0c-0.915876,0 -1.679928,0.33266 -2.292158,1.001636c-0.61223,0.666539 -0.920813,1.480521 -0.920813,2.44682l0,1.425687l-2.468667,0l0,2.437072l2.468667,0l0,6.007382c-1.878656,-0.237614 -3.488227,-1.029663 -4.884258,-2.417575c-1.697209,-1.686454 -2.521744,-3.658045 -2.521744,-6.026878c0,-2.395642 0.823301,-4.372107 2.520509,-6.043938c1.691037,-1.67305 3.693126,-2.485813 6.119826,-2.485813c2.400779,0 4.396697,0.813982 6.10378,2.489469c1.707083,1.671831 2.536556,3.648296 2.536556,6.040282c0,2.365178 -0.830707,4.336769 -2.540259,6.023223z"/>
 </g>
</svg>