<svg width="512" height="512" xmlns="http://www.w3.org/2000/svg">

 <g>
  <title>background</title>
  <rect fill="none" id="canvas_background" height="402" width="582" y="-1" x="-1"/>
 </g>
 <g>
  <title>Layer 1</title>
  <path fill="#f5f5f5" stroke="null" clip-rule="evenodd" fill-rule="evenodd" id="svg_2" d="m254.044231,24c-125.933355,0 -228.044231,105.120136 -228.044231,234.884195c0,103.790796 65.359106,191.731766 155.965965,222.817876c11.402212,2.147396 15.576235,-5.112847 15.576235,-11.350521c0,-5.624132 -0.203611,-20.349131 -0.305416,-39.982464c-63.424802,14.213715 -76.863123,-31.495138 -76.863123,-31.495138c-10.384157,-27.09809 -25.34956,-34.358332 -25.34956,-34.358332c-20.666508,-14.622743 1.527082,-14.315972 1.527082,-14.315972c22.906229,1.636111 34.919273,24.234895 34.919273,24.234895c20.361092,35.892187 53.346061,25.564235 66.37716,19.531076c2.036109,-15.134027 7.940826,-25.564235 14.456375,-31.392881c-50.597314,-5.930903 -103.84157,-26.07552 -103.84157,-116.061629c0,-25.666492 8.857075,-46.629165 23.415256,-62.990276c-2.341526,-5.930903 -10.180546,-29.859027 2.23972,-62.172221c0,0 19.139427,-6.33993 62.712164,24.030381c18.223177,-5.215104 37.66802,-7.771528 57.112863,-7.873785c19.343037,0.102257 38.889686,2.65868 57.112863,7.873785c43.572737,-30.370312 62.610358,-24.030381 62.610358,-24.030381c12.420266,32.313194 4.581246,56.241318 2.23972,62.172221c14.558181,16.463368 23.415256,37.426041 23.415256,62.990276c0,90.190623 -53.346061,110.028469 -104.146986,115.857115c8.144437,7.260243 15.47443,21.576215 15.47443,43.4592c0,31.392881 -0.305416,56.752603 -0.305416,64.421873c0,6.237673 4.072218,13.600173 15.678041,11.248264c90.810471,-30.983853 156.067771,-118.924823 156.067771,-222.613362c0,-129.764059 -102.110877,-234.884195 -228.044231,-234.884195z" class="st0"/>
 </g>
</svg>