<svg width="24" height="24" xmlns="http://www.w3.org/2000/svg">

 <g>
  <title>background</title>
  <rect fill="none" id="canvas_background" height="402" width="582" y="-1" x="-1"/>
 </g>
 <g>
  <title>Layer 1</title>
  <path stroke="null" id="svg_1" d="m22.620537,10.49806c-3.437363,-3.302982 -9.679372,-9.456436 -9.741224,-9.518931l-0.664151,-0.651569l-0.661109,0.651569c-0.062866,0.061338 -6.307917,6.212477 -9.794965,9.54555c-0.44412,0.455983 -0.697612,1.093664 -0.697612,1.746391c0,1.277678 0.908518,2.314634 2.027943,2.314634l1.013971,0l0,6.943901c0,1.277678 0.908518,2.314634 2.027943,2.314634l3.041914,0l9.125743,0c1.119425,0 2.027943,-1.036956 2.027943,-2.314634l0,-6.943901l1.013971,0c1.119425,0 2.027943,-1.036956 2.027943,-2.314634c0,-0.692076 -0.278842,-1.343645 -0.748311,-1.773009zm-8.377432,11.031545l-4.055886,0l0,-5.786584l4.055886,0l0,5.786584zm4.055886,-9.258535l0.002028,9.258535c-0.002028,0 -3.043942,0 -3.043942,0l0,-6.943901l-6.083829,0l0,6.943901l-3.041914,0l0,-9.258535l-3.042928,0c2.803631,-2.675717 7.417201,-7.206612 9.126757,-8.888194c1.709556,1.681581 6.321098,6.21132 9.125743,8.889351c0,0 -3.041914,0 -3.041914,-0.001157z"/>
 </g>
</svg>