<svg width="56.7" height="56.7" xmlns="http://www.w3.org/2000/svg">

 <g>
  <title>background</title>
  <rect fill="none" id="canvas_background" height="402" width="582" y="-1" x="-1"/>
 </g>
 <g>
  <title>Layer 1</title>
  <circle fill="#f5f5f5" stroke="null" id="svg_2" r="5.614308" cy="28.996874" cx="27.994407"/>
  <path fill="#f5f5f5" stroke="null" id="svg_3" d="m33.945486,17.193746l-12.016995,0c-1.747927,0 -3.277362,0.546227 -4.260571,1.529436c-0.983209,0.983209 -1.529436,2.512644 -1.529436,4.260571l0,12.016995c0,1.747927 0.546227,3.277362 1.638681,4.369816c1.092454,0.983209 2.512644,1.529436 4.260571,1.529436l11.907749,0c1.747927,0 3.277362,-0.546227 4.260571,-1.529436c1.092454,-0.983209 1.638681,-2.512644 1.638681,-4.260571l0,-12.016995c0,-1.747927 -0.546227,-3.168117 -1.529436,-4.260571c-1.092454,-1.092454 -2.512644,-1.638681 -4.369816,-1.638681zm-6.008497,19.227192c-4.151325,0 -7.428688,-3.386608 -7.428688,-7.428688c0,-4.151325 3.386608,-7.428688 7.428688,-7.428688s7.537933,3.277362 7.537933,7.428688c0,4.151325 -3.386608,7.428688 -7.537933,7.428688zm7.756424,-13.437185c-0.983209,0 -1.747927,-0.764718 -1.747927,-1.747927s0.764718,-1.747927 1.747927,-1.747927s1.747927,0.764718 1.747927,1.747927s-0.764718,1.747927 -1.747927,1.747927z"/>
  <path fill="#f5f5f5" stroke="null" id="svg_4" d="m28.088801,2.665785c-14.183754,0 -25.655908,11.566593 -25.655908,25.867107c0,14.300515 11.472154,25.867107 25.655908,25.867107c14.183754,0 25.655908,-11.566593 25.655908,-25.867107c0.104292,-14.300515 -11.472154,-25.867107 -25.655908,-25.867107zm13.662293,31.965856c0,2.418469 -0.834338,4.521486 -2.294431,5.993598c-1.460092,1.472112 -3.545939,2.208168 -5.840369,2.208168l-11.367862,0c-2.294431,0 -4.380277,-0.736056 -5.840369,-2.208168c-1.564385,-1.472112 -2.294431,-3.575129 -2.294431,-5.993598l0,-11.566593c0,-4.836939 3.233062,-8.201766 8.1348,-8.201766l11.472154,0c2.398723,0 4.380277,0.841207 5.840369,2.313319c1.460092,1.472112 2.190139,3.469978 2.190139,5.888447l0,11.566593z"/>
 </g>
</svg>