<svg width="67" height="67" xmlns="http://www.w3.org/2000/svg">

 <g>
  <title>background</title>
  <rect fill="none" id="canvas_background" height="402" width="582" y="-1" x="-1"/>
 </g>
 <g>
  <title>Layer 1</title>
  <path stroke="null" id="svg_1" fill-rule="evenodd" clip-rule="evenodd" fill="#f5f5f5" d="m50.444797,47.960536l0,-12.023617c0,-6.441957 -3.418564,-9.439648 -7.975968,-9.439648c-3.677762,0 -5.325816,2.035761 -6.244236,3.463771l0,-2.971l-6.928969,0c0.091842,1.968005 0,20.970495 0,20.970495l6.928969,0l0,-11.711529c0,-0.625203 0.044901,-1.251434 0.228585,-1.699034c0.500029,-1.25246 1.63989,-2.549064 3.553265,-2.549064c2.508307,0 3.510406,1.922834 3.510406,4.74087l0,11.219784l6.927949,0l0,-0.001027zm-28.448572,-23.832674c2.415445,0 3.920633,-1.611772 3.920633,-3.624948c-0.044901,-2.056293 -1.505188,-3.621868 -3.874712,-3.621868s-3.919613,1.564549 -3.919613,3.621868c0,2.013176 1.504168,3.624948 3.829812,3.624948l0.04388,0zm11.266973,40.117736c-16.907093,0 -30.614002,-13.789381 -30.614002,-30.7982c0,-17.009846 13.706909,-30.7982 30.614002,-30.7982s30.614002,13.788354 30.614002,30.7982c0,17.00882 -13.706909,30.7982 -30.614002,30.7982zm-7.802489,-16.285062l0,-20.970495l-6.927949,0l0,20.970495l6.927949,0z"/>
 </g>
</svg>