<svg width="32" height="32" xmlns="http://www.w3.org/2000/svg">
 <title/>

 <g>
  <title>background</title>
  <rect fill="none" id="canvas_background" height="402" width="582" y="-1" x="-1"/>
 </g>
 <g>
  <title>Layer 1</title>
  <path id="svg_1" d="m14.13,12.48l-6.73,0a0.94,0.94 0 1 0 0,1.87l6.73,0a0.94,0.94 0 0 0 0,-1.87z"/>
  <path id="svg_2" d="m11.6,16.69l-4.2,0a0.93,0.93 0 1 0 0,1.86l4.2,0a0.93,0.93 0 1 0 0,-1.86z"/>
  <path stroke="null" id="svg_3" d="m30.775052,5.518871a1.023557,1.027209 0 0 0 -0.314941,-0.745009l-4.40917,-4.436188a1.057301,1.061073 0 0 0 -1.48472,0l-2.587013,2.596242l-16.331925,0a2.958193,2.968746 0 0 0 -2.946945,2.957458l0,22.790491a2.946945,2.957458 0 0 0 2.946945,2.957458l16.084472,0a2.935697,2.94617 0 0 0 2.935697,-2.957458l0,-16.604662l5.792659,-5.813325a1.057301,1.061073 0 0 0 0.314941,-0.745009zm-8.998306,24.009596l-16.129463,0a0.843591,0.846601 0 0 1 -0.843591,-0.846601l0,-22.790491a0.854839,0.857889 0 0 1 0.843591,-0.846601l14.228571,0l-2.86821,2.88973a1.034805,1.038497 0 0 0 -0.236206,1.004633l0,4.165275a1.034805,1.038497 0 0 0 1.046053,1.049785l4.341683,0a1.057301,1.061073 0 0 0 0.416172,-0.079016l0,14.606684a0.843591,0.846601 0 0 1 -0.843591,0.846601l0.044992,0zm0,-17.473839l-2.913202,0l0,-2.991323l6.445037,-6.468029l2.924449,2.94617l-6.456285,6.513181z"/>
 </g>
</svg>